<svg id="Layer_1" data-name="Layer 1" xmlns="http://www.w3.org/2000/svg" viewBox="0 0 400 400"><defs><style>.cls-1{fill:#313133;}</style></defs><g id="Group_5" data-name="Group 5"><path id="Path_12" data-name="Path 12" class="cls-1" d="M132.86,353.82H53.8C48,353.82,46,352,46,346.32c0-48.72-.49-97.46.12-146.19A150.43,150.43,0,0,1,104.22,79.88a145.3,145.3,0,0,1,78-32.38A150.37,150.37,0,0,1,314,97.5a145.61,145.61,0,0,1,37.51,80.17A149.87,149.87,0,0,1,315,301.4a145,145,0,0,1-92,50.29,369.19,369.19,0,0,1-43.6,2.11c-15.52.33-31.06.08-46.58.08ZM57.22,343h4.3c42.24.05,84.47.18,126.71.09a239.15,239.15,0,0,0,30.63-1.3,135.68,135.68,0,0,0,71.92-31.55A139.26,139.26,0,0,0,341.26,181,137,137,0,0,0,277.64,80.26a138.69,138.69,0,0,0-96.87-22A137.36,137.36,0,0,0,100,97.87a136.58,136.58,0,0,0-42.7,97.58C56.5,243.61,57,291.78,57,339.89c0,.95.13,1.82.22,3.11Z"/><path id="Path_13" data-name="Path 13" class="cls-1" d="M199.83,138.25a50.34,50.34,0,0,1,24.11-13.16,49.48,49.48,0,0,1,60.6,49.8,51.76,51.76,0,0,1-16.74,36.83c-20.1,19.82-40,39.89-60,59.82a22.26,22.26,0,0,1-4.62,3.75c-3.56,2-6.77,1.17-10.43-2.46q-11.16-11-22.21-22.2c-14.28-14.34-29-28.3-42.69-43.15A49.73,49.73,0,0,1,154,125,49,49,0,0,1,198,136.65ZM200,265.32a33.54,33.54,0,0,1,2.58-3.47q29.77-29.88,59.61-59.69A37.86,37.86,0,0,0,274,173a37,37,0,0,0-24.09-35.37,37.35,37.35,0,0,0-42.07,7.93c-8.2,7.57-7.93,7.58-16.07.06a37.61,37.61,0,0,0-42.41-7.91,39.2,39.2,0,0,0-12,64.4c17.56,17.87,35.4,35.47,53.1,53.22,3,3,5.83,6.12,9.5,10Z"/></g></svg>