<svg id="Layer_1" data-name="Layer 1" xmlns="http://www.w3.org/2000/svg" viewBox="0 0 400 400"><defs><style>.cls-1{fill:#313133;}</style></defs><path id="Path_8" data-name="Path 8" class="cls-1" d="M199.92,63.85c7-6.07,13.28-12.49,20.36-17.51C273.39,8.67,344.72,41,359.16,109.42a111.44,111.44,0,0,1-21.47,95.76c-3.14,4-6.64,7.68-10,11.47Q269.45,281.86,211.22,347.1c-8.12,9.09-13.69,9.06-21.89-.13-39.16-43.87-78.18-87.91-117.58-131.53a123,123,0,0,1-29.19-51.08C26.39,104.17,61.69,41.25,117.1,31.93a85.1,85.1,0,0,1,80.25,29.3C198.25,62.16,199.22,63.09,199.92,63.85Zm12.8,178.52c.7-1.54,1.16-2.53,1.59-3.54q15.36-36.22,30.65-72.49c1.25-3,2.85-5.14,5.79-5.21,3.13-.07,4.86,2.23,6.14,5.32,4.31,10.33,8.82,20.48,13.08,30.89a4.47,4.47,0,0,0,4.83,3.41c15.28-.14,30.54-.24,45.81,0a10,10,0,0,0,9-4.56A100,100,0,0,0,348,112.37c-12-56.9-69.76-86.12-116-59.09a110.27,110.27,0,0,0-26.64,23.45c-3.55,4.06-6.42,4-10.07.08-2.83-3-5.59-6.14-8.47-9.1a74,74,0,0,0-65.45-23.8c-41.61,5.58-71.75,44.91-71.16,91.85A95.65,95.65,0,0,0,72.94,198.1a7.54,7.54,0,0,0,5.14,2.42c16,.18,32.06,0,48.08.22,3.82.06,5.58-1.08,7-5.25,8.85-26.43,18-52.74,27.13-79.07a16.8,16.8,0,0,1,2.46-5.16c3.55-4.32,8.16-2.16,10.3,4.64q14.83,47.31,29.63,94.61c3.31,10.49,6.62,20.93,10.06,31.86ZM251,183.07c-.89,2-1.53,3.35-2.15,4.73l-30.61,72.51c-1.36,3.24-2.8,5.95-6.61,5.69s-4.91-3.3-5.93-6.57q-12.94-41.15-25.78-82.29c-4.31-13.81-8.69-27.62-13.25-42.11-.81,2.1-1.38,3.48-1.88,4.9q-11.41,33.24-22.84,66.49c-2.23,6.47-3.65,7.55-9.82,7.55H88.42L200.27,339.24,311.84,214c-11.67,0-24.18-.57-36.65.21a13.67,13.67,0,0,1-15.86-11.06c0-.09,0-.18-.05-.27A202.51,202.51,0,0,0,251,183.16Z"/></svg>